<svg width="1295" height="1295" viewBox="0 0 1295 1295" fill="none" xmlns="http://www.w3.org/2000/svg">
<circle cx="647.5" cy="647.5" r="611.5" stroke="white" stroke-width="72"/>
<g clip-path="url(#clip0_2606_9573)">
<path d="M223.968 780.399C223.968 717.152 275.24 665.881 338.486 665.881C401.733 665.881 453.004 717.152 453.004 780.399C453.004 843.646 401.733 894.917 338.486 894.917C275.24 894.917 223.968 843.646 223.968 780.399Z" fill="white"/>
<path d="M561.798 631.134L483.449 676.368C443.129 606.532 415.07 587.4 395.511 561.846C391.814 557.016 386.107 548.589 379.306 538.106C344.93 485.112 363.945 414.778 418.65 383.194L490.224 507.164L561.798 631.134Z" fill="white"/>
<path d="M561.798 631.13L640.147 585.895C680.467 655.732 708.526 674.864 728.085 700.417C731.782 705.248 737.49 713.675 744.29 724.158C778.667 777.152 759.651 847.486 704.946 879.07L633.372 755.1L561.798 631.13Z" fill="white"/>
<path d="M561.798 631.134L640.147 585.9C599.827 516.063 597.287 482.198 584.937 452.482C582.602 446.865 578.158 437.709 572.479 426.578C543.773 370.31 473.355 351.611 418.65 383.195L490.224 507.165L561.798 631.134Z" fill="white"/>
<path d="M561.798 631.135L483.45 676.37C523.77 746.206 526.309 780.072 538.66 809.787C540.994 815.404 545.439 824.56 551.117 835.691C579.823 891.96 650.242 910.659 704.946 879.075L633.372 755.105L561.798 631.135Z" fill="white"/>
<path d="M870.541 631.133L792.192 676.368C751.872 606.532 723.813 587.4 704.254 561.846C700.557 557.016 694.85 548.589 688.049 538.106C653.673 485.112 672.688 414.778 727.393 383.194L798.967 507.164L870.541 631.133Z" fill="white"/>
<path d="M870.541 631.13L948.89 585.896C989.21 655.732 1017.27 674.864 1036.83 700.418C1040.53 705.248 1046.23 713.675 1053.03 724.158C1087.41 777.152 1068.39 847.486 1013.69 879.07L942.115 755.1L870.541 631.13Z" fill="white"/>
<path d="M870.541 631.132L948.89 585.897C908.57 516.061 906.03 482.196 893.68 452.48C891.346 446.863 886.901 437.707 881.223 426.576C852.517 370.308 782.098 351.609 727.393 383.193L798.967 507.162L870.541 631.132Z" fill="white"/>
<path d="M870.541 631.136L792.192 676.37C832.512 746.207 835.052 780.072 847.402 809.788C849.736 815.405 854.181 824.561 859.859 835.691C888.565 891.96 958.984 910.659 1013.69 879.075L942.115 755.105L870.541 631.136Z" fill="white"/>
</g>
<defs>
<clipPath id="clip0_2606_9573">
<rect width="847.937" height="528.98" fill="white" transform="translate(223.967 366.016)"/>
</clipPath>
</defs>
</svg>
