<svg width="144" height="144" viewBox="0 0 144 144" fill="none" xmlns="http://www.w3.org/2000/svg">
<circle cx="72" cy="72" r="67.9969" stroke="white" stroke-width="8.00618"/>
<g clip-path="url(#clip0_2604_6651)">
<path d="M24.9043 86.777C24.9043 79.7442 30.6055 74.043 37.6384 74.043C44.6712 74.043 50.3724 79.7442 50.3724 86.777C50.3724 93.8099 44.6712 99.5111 37.6384 99.5111C30.6055 99.5111 24.9043 93.8099 24.9043 86.777Z" fill="white"/>
<path d="M62.4696 70.1797L53.7574 75.2096C49.274 67.444 46.1539 65.3166 43.979 62.4751C43.5679 61.938 42.9333 61.0009 42.1771 59.8352C38.3545 53.9425 40.469 46.1215 46.552 42.6095L54.5108 56.3946L62.4696 70.1797Z" fill="white"/>
<path d="M62.4699 70.1797L71.182 65.1498C75.6655 72.9153 78.7855 75.0428 80.9605 77.8843C81.3716 78.4214 82.0062 79.3584 82.7624 80.5241C86.585 86.4169 84.4705 94.2378 78.3875 97.7498L70.4287 83.9648L62.4699 70.1797Z" fill="white"/>
<path d="M62.4697 70.1793L71.1818 65.1494C66.6983 57.3838 66.4159 53.6181 65.0426 50.3138C64.783 49.6892 64.2888 48.6711 63.6574 47.4333C60.4654 41.1765 52.635 39.0972 46.552 42.6092L54.5109 56.3943L62.4697 70.1793Z" fill="white"/>
<path d="M62.4698 70.18L53.7576 75.21C58.2411 82.9756 58.5235 86.7413 59.8968 90.0456C60.1564 90.6702 60.6506 91.6883 61.2821 92.9261C64.4741 99.1829 72.3044 101.262 78.3874 97.7502L70.4286 83.9651L62.4698 70.18Z" fill="white"/>
<path d="M96.8016 70.1796L88.0894 75.2096C83.606 67.444 80.486 65.3166 78.311 62.4751C77.8999 61.938 77.2653 61.0009 76.5091 59.8352C72.6865 53.9425 74.801 46.1215 80.884 42.6095L88.8428 56.3946L96.8016 70.1796Z" fill="white"/>
<path d="M96.8014 70.1798L105.514 65.1498C109.997 72.9154 113.117 75.0428 115.292 77.8843C115.703 78.4214 116.338 79.3584 117.094 80.5241C120.917 86.4169 118.802 94.2378 112.719 97.7498L104.76 83.9648L96.8014 70.1798Z" fill="white"/>
<path d="M96.8012 70.1793L105.513 65.1493C101.03 57.3838 100.747 53.618 99.3742 50.3137C99.1146 49.6892 98.6204 48.671 97.9889 47.4333C94.7969 41.1765 86.9666 39.0972 80.8836 42.6092L88.8424 56.3943L96.8012 70.1793Z" fill="white"/>
<path d="M96.8014 70.1801L88.0892 75.21C92.5727 82.9756 92.8551 86.7413 94.2284 90.0456C94.488 90.6702 94.9822 91.6883 95.6136 92.9261C98.8056 99.1829 106.636 101.262 112.719 97.7502L104.76 83.9651L96.8014 70.1801Z" fill="white"/>
</g>
<defs>
<clipPath id="clip0_2604_6651">
<rect width="94.288" height="58.821" fill="white" transform="translate(24.9043 40.6992)"/>
</clipPath>
</defs>
</svg>
