<svg width="22" height="22" viewBox="0 0 22 22" fill="none" xmlns="http://www.w3.org/2000/svg">
<path d="M4.90039 2.93359C4.62425 2.93359 4.40039 3.15745 4.40039 3.43359V18.5669C4.40039 18.8431 4.62425 19.0669 4.90039 19.0669H11.2337C11.5099 19.0669 11.7337 18.8431 11.7337 18.5669V15.1669C11.7337 14.8908 11.9576 14.6669 12.2337 14.6669H15.6337C15.9099 14.6669 16.1337 14.8908 16.1337 15.1669V18.5669C16.1337 18.8431 16.3576 19.0669 16.6337 19.0669H17.1004C17.3765 19.0669 17.6004 18.8431 17.6004 18.5669V3.43359C17.6004 3.15745 17.3765 2.93359 17.1004 2.93359H4.90039ZM10.2671 17.1003C10.2671 17.3764 10.0432 17.6003 9.76706 17.6003H6.36706C6.09092 17.6003 5.86706 17.3764 5.86706 17.1003V15.1669C5.86706 14.8908 6.09091 14.6669 6.36706 14.6669H9.76706C10.0432 14.6669 10.2671 14.8908 10.2671 15.1669V17.1003ZM10.2671 12.7003C10.2671 12.9764 10.0432 13.2003 9.76706 13.2003H6.36706C6.09092 13.2003 5.86706 12.9764 5.86706 12.7003V10.7669C5.86706 10.4908 6.09091 10.2669 6.36706 10.2669H9.76706C10.0432 10.2669 10.2671 10.4908 10.2671 10.7669V12.7003ZM10.2671 8.30026C10.2671 8.5764 10.0432 8.80026 9.76706 8.80026H6.36706C6.09092 8.80026 5.86706 8.5764 5.86706 8.30026V6.36693C5.86706 6.09078 6.09091 5.86693 6.36706 5.86693H9.76706C10.0432 5.86693 10.2671 6.09078 10.2671 6.36693V8.30026ZM16.1337 12.7003C16.1337 12.9764 15.9099 13.2003 15.6337 13.2003H12.2337C11.9576 13.2003 11.7337 12.9764 11.7337 12.7003V10.7669C11.7337 10.4908 11.9576 10.2669 12.2337 10.2669H15.6337C15.9099 10.2669 16.1337 10.4908 16.1337 10.7669V12.7003ZM16.1337 8.30026C16.1337 8.5764 15.9099 8.80026 15.6337 8.80026H12.2337C11.9576 8.80026 11.7337 8.5764 11.7337 8.30026V6.36693C11.7337 6.09078 11.9576 5.86693 12.2337 5.86693H15.6337C15.9099 5.86693 16.1337 6.09078 16.1337 6.36693V8.30026Z" fill="#D0D0D0"/>
</svg>
