<svg width="26" height="34" viewBox="0 0 26 34" fill="none" xmlns="http://www.w3.org/2000/svg">
<path d="M13 33.6663C12.0833 33.6663 11.2989 33.3402 10.6467 32.688C9.99445 32.0358 9.66778 31.2508 9.66667 30.333H16.3333C16.3333 31.2497 16.0072 32.0347 15.355 32.688C14.7028 33.3413 13.9178 33.6674 13 33.6663ZM6.33333 28.6663V25.333H19.6667V28.6663H6.33333ZM6.75 23.6663C4.83333 22.5275 3.31222 20.9997 2.18667 19.083C1.06111 17.1663 0.498891 15.083 0.500002 12.833C0.500002 9.36079 1.71556 6.40968 4.14667 3.97968C6.57778 1.54968 9.52889 0.33412 13 0.333009C16.4711 0.331897 19.4228 1.54745 21.855 3.97968C24.2872 6.4119 25.5022 9.36301 25.5 12.833C25.5 15.083 24.9378 17.1663 23.8133 19.083C22.6889 20.9997 21.1678 22.5275 19.25 23.6663H6.75Z" fill="#373A40"/>
</svg>
