<svg width="36" height="32" viewBox="0 0 36 32" fill="none" xmlns="http://www.w3.org/2000/svg">
<path d="M23.3631 11.7147C24.7431 11.7147 25.8631 12.8347 25.8631 14.2147V23.8561C25.8631 25.9404 25.0352 27.9392 23.5614 29.413C22.0876 30.8868 20.0888 31.7147 18.0046 31.7147C15.9203 31.7147 13.9215 30.8868 12.4477 29.413C10.9739 27.9392 10.146 25.9404 10.146 23.8561V14.2147C10.146 12.8347 11.2646 11.7147 12.646 11.7147H23.3631ZM3.35742 11.7147L9.61742 11.7118C9.10264 12.3322 8.79271 13.0967 8.73028 13.9004L8.71599 14.2147V23.8561C8.71599 25.4747 9.13171 26.9976 9.85885 28.3233C8.88018 28.7507 7.81045 28.9276 6.74629 28.8379C5.68213 28.7482 4.65707 28.3949 3.76371 27.8098C2.87035 27.2246 2.13683 26.4262 1.62942 25.4865C1.122 24.5468 0.856683 23.4955 0.857423 22.4276V14.2147C0.857423 13.8863 0.922135 13.5611 1.04786 13.2577C1.17359 12.9543 1.35786 12.6786 1.59016 12.4464C1.82246 12.2143 2.09823 12.0301 2.4017 11.9046C2.70518 11.779 3.029 11.7145 3.35742 11.7147ZM26.3931 11.7118L32.6431 11.7147C34.0231 11.7147 35.1431 12.8347 35.1431 14.2147V22.429C35.1436 23.4964 34.8782 24.5471 34.371 25.4862C33.8639 26.4254 33.1308 27.2235 32.238 27.8085C31.3453 28.3936 30.3209 28.7471 29.2573 28.8372C28.1937 28.9273 27.1245 28.7512 26.146 28.3247L26.226 28.179C26.8389 27.0176 27.2117 25.709 27.2803 24.3218L27.2917 23.8561V14.2147C27.2917 13.2633 26.9546 12.3918 26.3931 11.7118ZM18.0003 0.286133C18.6569 0.286133 19.3071 0.415462 19.9137 0.666735C20.5203 0.918009 21.0715 1.28631 21.5358 1.7506C22.0001 2.21489 22.3684 2.76609 22.6197 3.37272C22.871 3.97934 23.0003 4.62952 23.0003 5.28613C23.0003 5.94274 22.871 6.59292 22.6197 7.19955C22.3684 7.80618 22.0001 8.35737 21.5358 8.82167C21.0715 9.28596 20.5203 9.65426 19.9137 9.90553C19.3071 10.1568 18.6569 10.2861 18.0003 10.2861C16.6742 10.2861 15.4024 9.75935 14.4647 8.82167C13.5271 7.88399 13.0003 6.61222 13.0003 5.28613C13.0003 3.96005 13.5271 2.68828 14.4647 1.7506C15.4024 0.812917 16.6742 0.286133 18.0003 0.286133ZM29.4331 1.7147C29.9959 1.7147 30.5532 1.82556 31.0732 2.04094C31.5932 2.25631 32.0656 2.572 32.4636 2.96996C32.8616 3.36793 33.1772 3.84038 33.3926 4.36035C33.608 4.88031 33.7189 5.43761 33.7189 6.00042C33.7189 6.56323 33.608 7.12052 33.3926 7.64049C33.1772 8.16046 32.8616 8.63291 32.4636 9.03088C32.0656 9.42884 31.5932 9.74453 31.0732 9.9599C30.5532 10.1753 29.9959 10.2861 29.4331 10.2861C28.2965 10.2861 27.2064 9.83461 26.4027 9.03088C25.599 8.22715 25.1474 7.13706 25.1474 6.00042C25.1474 4.86378 25.599 3.77369 26.4027 2.96996C27.2064 2.16623 28.2965 1.7147 29.4331 1.7147ZM6.56742 1.7147C7.13023 1.7147 7.68753 1.82556 8.2075 2.04094C8.72746 2.25631 9.19992 2.572 9.59788 2.96996C9.99585 3.36793 10.3115 3.84038 10.5269 4.36035C10.7423 4.88031 10.8531 5.43761 10.8531 6.00042C10.8531 6.56323 10.7423 7.12052 10.5269 7.64049C10.3115 8.16046 9.99585 8.63291 9.59788 9.03088C9.19992 9.42884 8.72746 9.74453 8.2075 9.9599C7.68753 10.1753 7.13023 10.2861 6.56742 10.2861C5.43078 10.2861 4.34069 9.83461 3.53697 9.03088C2.73324 8.22715 2.28171 7.13706 2.28171 6.00042C2.28171 4.86378 2.73324 3.77369 3.53697 2.96996C4.34069 2.16623 5.43078 1.7147 6.56742 1.7147Z" fill="#373A40"/>
</svg>
