<svg width="34" height="34" viewBox="0 0 34 34" fill="none" xmlns="http://www.w3.org/2000/svg">
<path d="M11.1673 6.99967H8.16732C10.6673 4.83301 13.6673 3.66634 17.0007 3.66634C17.5007 3.66634 18.0007 3.66634 18.5007 3.83301C19.334 3.99967 20.1673 3.33301 20.334 2.33301C20.5007 1.49967 19.834 0.666341 18.834 0.499674C18.1673 0.333008 17.6673 0.333008 17.0007 0.333008C13.0007 0.333008 9.16732 1.83301 6.16732 4.33301V1.99967C6.16732 0.999674 5.50065 0.333008 4.50065 0.333008C3.50065 0.333008 2.83398 0.999674 2.83398 1.99967V8.66634C2.83398 9.66634 3.50065 10.333 4.50065 10.333H11.1673C12.1673 10.333 12.834 9.66634 12.834 8.66634C12.834 7.66634 12.1673 6.99967 11.1673 6.99967ZM8.66732 21.1663C7.66732 21.1663 7.00065 21.833 7.00065 22.833V25.833C4.83398 23.333 3.66732 20.333 3.66732 16.9997C3.66732 16.4997 3.66732 15.9997 3.83398 15.4997C4.00065 14.6663 3.33398 13.833 2.33398 13.6663C1.50065 13.4997 0.667318 14.1663 0.500651 15.1663C0.333984 15.833 0.333984 16.333 0.333984 16.9997C0.333984 20.9997 1.83398 24.833 4.33398 27.833H2.00065C1.00065 27.833 0.333984 28.4997 0.333984 29.4997C0.333984 30.4997 1.00065 31.1663 2.00065 31.1663H8.66732C9.16732 31.1663 9.66732 30.833 10.0007 30.4997C10.0007 30.333 10.1673 30.1663 10.1673 29.9997V22.833C10.334 21.833 9.66732 21.1663 8.66732 21.1663ZM32.0007 6.16634C33.0006 6.16634 33.6673 5.49967 33.6673 4.49967C33.6673 3.49967 33.0006 2.83301 32.0007 2.83301H25.0006C24.834 2.83301 24.6673 2.99967 24.5007 2.99967C24.334 3.16634 24.1673 3.16634 24.1673 3.33301C24.1673 3.49967 24.0007 3.66634 24.0007 3.66634V10.833C24.0007 11.833 24.6673 12.4997 25.6673 12.4997C26.6673 12.4997 27.334 11.833 27.334 10.833V8.16634C29.5007 10.4997 30.6673 13.6663 30.6673 16.9997C30.6673 17.4997 30.6673 17.9997 30.5007 18.4997C30.334 19.333 31.0007 20.1663 32.0007 20.333H32.1673C33.0007 20.333 33.6673 19.6663 33.834 18.833C33.834 18.1663 34.0007 17.6663 34.0007 16.9997C34.0007 12.9997 32.5006 9.16634 30.0006 6.16634H32.0007ZM30.834 24.4997L30.334 23.9997C30.1673 23.833 30.0007 23.833 29.834 23.833H22.834C21.834 23.833 21.1673 24.4997 21.1673 25.4997C21.1673 26.4997 21.834 27.1663 22.834 27.1663H25.834C23.5006 29.333 20.334 30.4997 17.0007 30.4997C16.5007 30.4997 16.0007 30.4997 15.5007 30.333C14.6673 30.1663 13.834 30.833 13.6673 31.833C13.5007 32.833 14.1673 33.4997 15.1673 33.6663C15.834 33.6663 16.334 33.833 17.0007 33.833C21.0007 33.833 24.834 32.333 27.834 29.833V31.9997C27.834 32.9997 28.5007 33.6663 29.5007 33.6663C30.5007 33.6663 31.1673 32.9997 31.1673 31.9997V25.333C31.1673 24.9997 31.0006 24.6663 30.834 24.4997Z" fill="#373A40"/>
</svg>
