<svg width="22" height="22" viewBox="0 0 22 22" fill="none" xmlns="http://www.w3.org/2000/svg">
<g clipPath="url(#clip0_2611_17795)">
<path d="M11.0007 1.83301C16.0634 1.83301 20.1673 5.93692 20.1673 10.9997C20.1673 16.0624 16.0634 20.1663 11.0007 20.1663C5.9379 20.1663 1.83398 16.0624 1.83398 10.9997C1.83398 5.93692 5.9379 1.83301 11.0007 1.83301ZM11.0007 3.66634C9.05573 3.66634 7.19047 4.43896 5.8152 5.81422C4.43993 7.18949 3.66732 9.05475 3.66732 10.9997C3.66732 12.9446 4.43993 14.8099 5.8152 16.1851C7.19047 17.5604 9.05573 18.333 11.0007 18.333C12.9456 18.333 14.8108 17.5604 16.1861 16.1851C17.5614 14.8099 18.334 12.9446 18.334 10.9997C18.334 9.05475 17.5614 7.18949 16.1861 5.81422C14.8108 4.43896 12.9456 3.66634 11.0007 3.66634ZM11.0007 5.49967C11.2252 5.4997 11.4419 5.58213 11.6097 5.73133C11.7774 5.88053 11.8846 6.08611 11.9109 6.30909L11.9173 6.41634V10.6202L14.3987 13.1016C14.5631 13.2666 14.6586 13.4879 14.6657 13.7207C14.6728 13.9535 14.591 14.1802 14.437 14.3549C14.283 14.5296 14.0682 14.6391 13.8364 14.6612C13.6045 14.6833 13.373 14.6163 13.1887 14.4738L13.1026 14.3978L10.3526 11.6478C10.2101 11.5052 10.1186 11.3196 10.0922 11.1198L10.084 10.9997V6.41634C10.084 6.17323 10.1806 5.94007 10.3525 5.76816C10.5244 5.59625 10.7575 5.49967 11.0007 5.49967Z" fill="#D0D0D0"/>
</g>
<defs>
<clipPath id="clip0_2611_17795">
<rect width="22" height="22" fill="white"/>
</clipPath>
</defs>
</svg>
