<svg width="813" height="1645" viewBox="0 0 813 1645" fill="none" xmlns="http://www.w3.org/2000/svg">
<path d="M1900 822.789C1900 368.997 1474.89 1.12494 950.5 1.12496C426.106 1.12498 0.999936 368.997 0.999958 822.789C0.999981 1276.58 426.106 1644.45 950.5 1644.45C1474.89 1644.45 1900 1276.58 1900 822.789Z" stroke="url(#paint0_linear_2604_4691)" stroke-opacity="0.7" stroke-linecap="round" stroke-linejoin="round"/>
<path d="M1873.19 822.791C1873.19 381.81 1460.09 24.3238 950.498 24.3238C440.909 24.3238 27.8046 381.81 27.8046 822.791C27.8047 1263.77 440.909 1621.26 950.499 1621.26C1460.09 1621.26 1873.19 1263.77 1873.19 822.791Z" stroke="url(#paint1_linear_2604_4691)" stroke-opacity="0.7" stroke-linecap="round" stroke-linejoin="round"/>
<path d="M1846.36 822.786C1846.36 394.63 1445.27 47.5413 950.499 47.5414C455.73 47.5414 54.6401 394.63 54.6401 822.786C54.6401 1250.94 455.73 1598.03 950.499 1598.03C1445.27 1598.03 1846.36 1250.94 1846.36 822.786Z" stroke="url(#paint2_linear_2604_4691)" stroke-opacity="0.7" stroke-linecap="round" stroke-linejoin="round"/>
<path d="M1819.55 822.788C1819.55 407.443 1430.46 70.7396 950.5 70.7396C470.535 70.7396 81.4467 407.443 81.4467 822.788C81.4468 1238.13 470.535 1574.84 950.5 1574.84C1430.46 1574.84 1819.55 1238.13 1819.55 822.788Z" stroke="url(#paint3_linear_2604_4691)" stroke-opacity="0.7" stroke-linecap="round" stroke-linejoin="round"/>
<path d="M1792.72 822.791C1792.72 420.271 1415.64 93.9649 950.5 93.9649C485.356 93.965 108.282 420.271 108.282 822.791C108.282 1225.31 485.356 1551.62 950.5 1551.62C1415.64 1551.62 1792.72 1225.31 1792.72 822.791Z" stroke="url(#paint4_linear_2604_4691)" stroke-opacity="0.7" stroke-linecap="round" stroke-linejoin="round"/>
<path d="M1765.91 822.785C1765.91 433.077 1400.84 117.156 950.499 117.156C500.16 117.156 135.087 433.077 135.087 822.785C135.087 1212.49 500.16 1528.41 950.499 1528.41C1400.84 1528.41 1765.91 1212.49 1765.91 822.785Z" stroke="url(#paint5_linear_2604_4691)" stroke-opacity="0.7" stroke-linecap="round" stroke-linejoin="round"/>
<path d="M1739.11 822.787C1739.11 445.89 1386.04 140.355 950.5 140.355C514.965 140.355 161.894 445.89 161.894 822.787C161.894 1199.68 514.965 1505.22 950.5 1505.22C1386.04 1505.22 1739.11 1199.68 1739.11 822.787Z" stroke="url(#paint6_linear_2604_4691)" stroke-opacity="0.7" stroke-linecap="round" stroke-linejoin="round"/>
<path d="M1712.27 822.79C1712.27 458.718 1371.22 163.58 950.501 163.58C529.786 163.58 188.729 458.718 188.729 822.79C188.729 1186.86 529.786 1482 950.501 1482C1371.22 1482 1712.27 1186.86 1712.27 822.79Z" stroke="url(#paint7_linear_2604_4691)" stroke-opacity="0.7" stroke-linecap="round" stroke-linejoin="round"/>
<path d="M1685.46 822.792C1685.46 471.531 1356.41 186.779 950.499 186.779C544.589 186.779 215.534 471.531 215.534 822.792C215.534 1174.05 544.589 1458.8 950.499 1458.8C1356.41 1458.8 1685.46 1174.05 1685.46 822.792Z" stroke="url(#paint8_linear_2604_4691)" stroke-opacity="0.7" stroke-linecap="round" stroke-linejoin="round"/>
<path d="M1658.63 822.787C1658.63 484.352 1341.59 209.996 950.499 209.996C559.41 209.996 242.369 484.352 242.369 822.787C242.369 1161.22 559.41 1435.58 950.499 1435.58C1341.59 1435.58 1658.63 1161.22 1658.63 822.787Z" stroke="url(#paint9_linear_2604_4691)" stroke-opacity="0.7" stroke-linecap="round" stroke-linejoin="round"/>
<path d="M1631.82 822.789C1631.82 497.165 1326.79 233.195 950.5 233.195C574.215 233.195 269.176 497.165 269.176 822.789C269.176 1148.41 574.216 1412.38 950.5 1412.38C1326.79 1412.38 1631.82 1148.41 1631.82 822.789Z" stroke="url(#paint10_linear_2604_4691)" stroke-opacity="0.7" stroke-linecap="round" stroke-linejoin="round"/>
<path d="M1604.99 822.792C1604.99 509.993 1311.96 256.42 950.5 256.42C589.035 256.42 296.011 509.993 296.011 822.792C296.011 1135.59 589.035 1389.16 950.5 1389.16C1311.96 1389.16 1604.99 1135.59 1604.99 822.792Z" stroke="url(#paint11_linear_2604_4691)" stroke-opacity="0.7" stroke-linecap="round" stroke-linejoin="round"/>
<path d="M1578.18 822.794C1578.18 522.806 1297.16 279.618 950.5 279.618C603.84 279.618 322.817 522.806 322.817 822.794C322.817 1122.78 603.84 1365.97 950.5 1365.97C1297.16 1365.97 1578.18 1122.78 1578.18 822.794Z" stroke="url(#paint12_linear_2604_4691)" stroke-opacity="0.7" stroke-linecap="round" stroke-linejoin="round"/>
<path d="M1551.38 822.787C1551.38 535.612 1282.36 302.809 950.501 302.809C618.645 302.809 349.623 535.612 349.624 822.788C349.624 1109.96 618.645 1342.77 950.501 1342.77C1282.36 1342.77 1551.38 1109.96 1551.38 822.787Z" stroke="url(#paint13_linear_2604_4691)" stroke-opacity="0.7" stroke-linecap="round" stroke-linejoin="round"/>
<path d="M1524.54 822.791C1524.54 548.44 1267.53 326.035 950.5 326.035C633.465 326.035 376.458 548.44 376.458 822.791C376.458 1097.14 633.465 1319.55 950.5 1319.55C1267.54 1319.55 1524.54 1097.14 1524.54 822.791Z" stroke="url(#paint14_linear_2604_4691)" stroke-opacity="0.7" stroke-linecap="round" stroke-linejoin="round"/>
<path d="M1497.74 822.792C1497.74 561.253 1252.73 349.233 950.5 349.233C648.27 349.233 403.264 561.253 403.264 822.792C403.264 1084.33 648.27 1296.35 950.5 1296.35C1252.73 1296.35 1497.74 1084.33 1497.74 822.792Z" stroke="url(#paint15_linear_2604_4691)" stroke-opacity="0.7" stroke-linecap="round" stroke-linejoin="round"/>
<path d="M1470.9 822.788C1470.9 574.074 1237.91 372.451 950.5 372.451C663.09 372.451 430.099 574.074 430.099 822.788C430.099 1071.5 663.09 1273.12 950.5 1273.12C1237.91 1273.12 1470.9 1071.5 1470.9 822.788Z" stroke="url(#paint16_linear_2604_4691)" stroke-opacity="0.7" stroke-linecap="round" stroke-linejoin="round"/>
<path d="M1444.1 822.79C1444.1 586.887 1223.11 395.649 950.5 395.649C677.895 395.649 456.905 586.887 456.905 822.79C456.905 1058.69 677.895 1249.93 950.5 1249.93C1223.11 1249.93 1444.1 1058.69 1444.1 822.79Z" stroke="url(#paint17_linear_2604_4691)" stroke-opacity="0.7" stroke-linecap="round" stroke-linejoin="round"/>
<path d="M1417.29 822.791C1417.29 599.7 1208.3 418.848 950.5 418.848C692.699 418.848 483.711 599.7 483.711 822.791C483.711 1045.88 692.699 1226.73 950.5 1226.73C1208.3 1226.73 1417.29 1045.88 1417.29 822.791Z" stroke="url(#paint18_linear_2604_4691)" stroke-opacity="0.7" stroke-linecap="round" stroke-linejoin="round"/>
<path d="M1390.45 822.787C1390.45 612.52 1193.48 442.066 950.5 442.066C707.52 442.066 510.546 612.52 510.546 822.787C510.546 1033.05 707.52 1203.51 950.5 1203.51C1193.48 1203.51 1390.45 1033.05 1390.45 822.787Z" stroke="url(#paint19_linear_2604_4691)" stroke-opacity="0.7" stroke-linecap="round" stroke-linejoin="round"/>
<path d="M1363.65 822.788C1363.65 625.333 1178.67 465.264 950.499 465.264C722.324 465.264 537.351 625.333 537.351 822.788C537.351 1020.24 722.324 1180.31 950.499 1180.31C1178.67 1180.31 1363.65 1020.24 1363.65 822.788Z" stroke="url(#paint20_linear_2604_4691)" stroke-opacity="0.7" stroke-linecap="round" stroke-linejoin="round"/>
<path d="M1336.81 822.784C1336.81 638.154 1163.85 488.482 950.499 488.482C737.144 488.482 564.186 638.154 564.186 822.784C564.186 1007.41 737.144 1157.09 950.499 1157.09C1163.85 1157.09 1336.81 1007.41 1336.81 822.784Z" stroke="url(#paint21_linear_2604_4691)" stroke-opacity="0.7" stroke-linecap="round" stroke-linejoin="round"/>
<path d="M1310.01 822.786C1310.01 650.967 1149.05 511.681 950.5 511.681C751.95 511.681 590.993 650.967 590.993 822.786C590.993 994.604 751.95 1133.89 950.5 1133.89C1149.05 1133.89 1310.01 994.604 1310.01 822.786Z" stroke="url(#paint22_linear_2604_4691)" stroke-opacity="0.7" stroke-linecap="round" stroke-linejoin="round"/>
<path d="M1283.2 822.787C1283.2 663.78 1134.25 534.879 950.499 534.879C766.753 534.879 617.798 663.78 617.798 822.787C617.798 981.794 766.753 1110.7 950.499 1110.7C1134.25 1110.7 1283.2 981.794 1283.2 822.787Z" stroke="url(#paint23_linear_2604_4691)" stroke-opacity="0.7" stroke-linecap="round" stroke-linejoin="round"/>
<path d="M1256.37 822.79C1256.37 676.608 1119.42 558.104 950.5 558.104C781.574 558.104 644.633 676.608 644.633 822.79C644.633 968.973 781.574 1087.48 950.5 1087.48C1119.43 1087.48 1256.37 968.973 1256.37 822.79Z" stroke="url(#paint24_linear_2604_4691)" stroke-opacity="0.7" stroke-linecap="round" stroke-linejoin="round"/>
<path d="M1229.56 822.792C1229.56 689.421 1104.62 581.303 950.5 581.303C796.38 581.303 671.44 689.422 671.44 822.792C671.44 956.163 796.38 1064.28 950.501 1064.28C1104.62 1064.28 1229.56 956.163 1229.56 822.792Z" stroke="url(#paint25_linear_2604_4691)" stroke-opacity="0.7" stroke-linecap="round" stroke-linejoin="round"/>
<path d="M1202.73 822.788C1202.73 702.242 1089.8 604.521 950.5 604.521C811.2 604.521 698.275 702.242 698.275 822.788C698.275 943.333 811.2 1041.05 950.5 1041.05C1089.8 1041.05 1202.73 943.333 1202.73 822.788Z" stroke="url(#paint26_linear_2604_4691)" stroke-opacity="0.7" stroke-linecap="round" stroke-linejoin="round"/>
<path d="M1175.92 822.789C1175.92 715.055 1075 627.719 950.5 627.719C826.004 627.719 725.08 715.055 725.08 822.789C725.08 930.524 826.004 1017.86 950.5 1017.86C1075 1017.86 1175.92 930.524 1175.92 822.789Z" stroke="url(#paint27_linear_2604_4691)" stroke-opacity="0.7" stroke-linecap="round" stroke-linejoin="round"/>
<path d="M1149.08 822.789C1149.08 727.88 1060.18 650.941 950.5 650.941C840.825 650.941 751.916 727.88 751.916 822.789C751.916 917.698 840.825 994.637 950.5 994.637C1060.18 994.637 1149.08 917.698 1149.08 822.789Z" stroke="url(#paint28_linear_2604_4691)" stroke-opacity="0.7" stroke-linecap="round" stroke-linejoin="round"/>
<path d="M1122.28 822.79C1122.28 740.693 1045.37 674.139 950.5 674.139C855.63 674.139 778.722 740.693 778.722 822.79C778.722 904.888 855.63 971.441 950.5 971.441C1045.37 971.441 1122.28 904.888 1122.28 822.79Z" stroke="url(#paint29_linear_2604_4691)" stroke-opacity="0.7" stroke-linecap="round" stroke-linejoin="round"/>
<path d="M1095.47 822.788C1095.47 753.502 1030.57 697.334 950.499 697.334C870.433 697.334 805.527 753.502 805.527 822.788C805.527 892.075 870.433 948.242 950.499 948.242C1030.57 948.242 1095.47 892.075 1095.47 822.788Z" stroke="url(#paint30_linear_2604_4691)" stroke-opacity="0.7" stroke-linecap="round" stroke-linejoin="round"/>
<defs>
<linearGradient id="paint0_linear_2604_4691" x1="0.999958" y1="822.789" x2="1900" y2="822.789" gradientUnits="userSpaceOnUse">
<stop stop-color="#CCE0D6" stop-opacity="0.2"/>
<stop offset="1" stop-color="#006633" stop-opacity="0.22"/>
</linearGradient>
<linearGradient id="paint1_linear_2604_4691" x1="27.8046" y1="822.791" x2="1873.19" y2="822.791" gradientUnits="userSpaceOnUse">
<stop stop-color="#CCE0D6" stop-opacity="0.2"/>
<stop offset="1" stop-color="#006633" stop-opacity="0.22"/>
</linearGradient>
<linearGradient id="paint2_linear_2604_4691" x1="54.6401" y1="822.786" x2="1846.36" y2="822.786" gradientUnits="userSpaceOnUse">
<stop stop-color="#CCE0D6" stop-opacity="0.2"/>
<stop offset="1" stop-color="#006633" stop-opacity="0.22"/>
</linearGradient>
<linearGradient id="paint3_linear_2604_4691" x1="81.4467" y1="822.788" x2="1819.55" y2="822.788" gradientUnits="userSpaceOnUse">
<stop stop-color="#CCE0D6" stop-opacity="0.2"/>
<stop offset="1" stop-color="#006633" stop-opacity="0.22"/>
</linearGradient>
<linearGradient id="paint4_linear_2604_4691" x1="108.282" y1="822.791" x2="1792.72" y2="822.791" gradientUnits="userSpaceOnUse">
<stop stop-color="#CCE0D6" stop-opacity="0.2"/>
<stop offset="1" stop-color="#006633" stop-opacity="0.22"/>
</linearGradient>
<linearGradient id="paint5_linear_2604_4691" x1="135.087" y1="822.785" x2="1765.91" y2="822.785" gradientUnits="userSpaceOnUse">
<stop stop-color="#CCE0D6" stop-opacity="0.2"/>
<stop offset="1" stop-color="#006633" stop-opacity="0.22"/>
</linearGradient>
<linearGradient id="paint6_linear_2604_4691" x1="161.894" y1="822.787" x2="1739.11" y2="822.787" gradientUnits="userSpaceOnUse">
<stop stop-color="#CCE0D6" stop-opacity="0.2"/>
<stop offset="1" stop-color="#006633" stop-opacity="0.22"/>
</linearGradient>
<linearGradient id="paint7_linear_2604_4691" x1="188.729" y1="822.79" x2="1712.27" y2="822.79" gradientUnits="userSpaceOnUse">
<stop stop-color="#CCE0D6" stop-opacity="0.2"/>
<stop offset="1" stop-color="#006633" stop-opacity="0.22"/>
</linearGradient>
<linearGradient id="paint8_linear_2604_4691" x1="215.534" y1="822.792" x2="1685.46" y2="822.792" gradientUnits="userSpaceOnUse">
<stop stop-color="#CCE0D6" stop-opacity="0.2"/>
<stop offset="1" stop-color="#006633" stop-opacity="0.22"/>
</linearGradient>
<linearGradient id="paint9_linear_2604_4691" x1="242.369" y1="822.787" x2="1658.63" y2="822.787" gradientUnits="userSpaceOnUse">
<stop stop-color="#CCE0D6" stop-opacity="0.2"/>
<stop offset="1" stop-color="#006633" stop-opacity="0.22"/>
</linearGradient>
<linearGradient id="paint10_linear_2604_4691" x1="269.176" y1="822.789" x2="1631.82" y2="822.789" gradientUnits="userSpaceOnUse">
<stop stop-color="#CCE0D6" stop-opacity="0.2"/>
<stop offset="1" stop-color="#006633" stop-opacity="0.22"/>
</linearGradient>
<linearGradient id="paint11_linear_2604_4691" x1="296.011" y1="822.792" x2="1604.99" y2="822.792" gradientUnits="userSpaceOnUse">
<stop stop-color="#CCE0D6" stop-opacity="0.2"/>
<stop offset="1" stop-color="#006633" stop-opacity="0.22"/>
</linearGradient>
<linearGradient id="paint12_linear_2604_4691" x1="322.817" y1="822.794" x2="1578.18" y2="822.794" gradientUnits="userSpaceOnUse">
<stop stop-color="#CCE0D6" stop-opacity="0.2"/>
<stop offset="1" stop-color="#006633" stop-opacity="0.22"/>
</linearGradient>
<linearGradient id="paint13_linear_2604_4691" x1="349.624" y1="822.788" x2="1551.38" y2="822.787" gradientUnits="userSpaceOnUse">
<stop stop-color="#CCE0D6" stop-opacity="0.2"/>
<stop offset="1" stop-color="#006633" stop-opacity="0.22"/>
</linearGradient>
<linearGradient id="paint14_linear_2604_4691" x1="376.458" y1="822.791" x2="1524.54" y2="822.791" gradientUnits="userSpaceOnUse">
<stop stop-color="#CCE0D6" stop-opacity="0.2"/>
<stop offset="1" stop-color="#006633" stop-opacity="0.22"/>
</linearGradient>
<linearGradient id="paint15_linear_2604_4691" x1="403.264" y1="822.793" x2="1497.74" y2="822.792" gradientUnits="userSpaceOnUse">
<stop stop-color="#CCE0D6" stop-opacity="0.2"/>
<stop offset="1" stop-color="#006633" stop-opacity="0.22"/>
</linearGradient>
<linearGradient id="paint16_linear_2604_4691" x1="430.099" y1="822.788" x2="1470.9" y2="822.788" gradientUnits="userSpaceOnUse">
<stop stop-color="#CCE0D6" stop-opacity="0.2"/>
<stop offset="1" stop-color="#006633" stop-opacity="0.22"/>
</linearGradient>
<linearGradient id="paint17_linear_2604_4691" x1="456.905" y1="822.79" x2="1444.1" y2="822.789" gradientUnits="userSpaceOnUse">
<stop stop-color="#CCE0D6" stop-opacity="0.2"/>
<stop offset="1" stop-color="#006633" stop-opacity="0.22"/>
</linearGradient>
<linearGradient id="paint18_linear_2604_4691" x1="483.711" y1="822.791" x2="1417.29" y2="822.791" gradientUnits="userSpaceOnUse">
<stop stop-color="#CCE0D6" stop-opacity="0.2"/>
<stop offset="1" stop-color="#006633" stop-opacity="0.22"/>
</linearGradient>
<linearGradient id="paint19_linear_2604_4691" x1="510.546" y1="822.787" x2="1390.45" y2="822.787" gradientUnits="userSpaceOnUse">
<stop stop-color="#CCE0D6" stop-opacity="0.2"/>
<stop offset="1" stop-color="#006633" stop-opacity="0.22"/>
</linearGradient>
<linearGradient id="paint20_linear_2604_4691" x1="537.351" y1="822.788" x2="1363.65" y2="822.788" gradientUnits="userSpaceOnUse">
<stop stop-color="#CCE0D6" stop-opacity="0.2"/>
<stop offset="1" stop-color="#006633" stop-opacity="0.22"/>
</linearGradient>
<linearGradient id="paint21_linear_2604_4691" x1="564.186" y1="822.784" x2="1336.81" y2="822.784" gradientUnits="userSpaceOnUse">
<stop stop-color="#CCE0D6" stop-opacity="0.2"/>
<stop offset="1" stop-color="#006633" stop-opacity="0.22"/>
</linearGradient>
<linearGradient id="paint22_linear_2604_4691" x1="590.993" y1="822.786" x2="1310.01" y2="822.786" gradientUnits="userSpaceOnUse">
<stop stop-color="#CCE0D6" stop-opacity="0.2"/>
<stop offset="1" stop-color="#006633" stop-opacity="0.22"/>
</linearGradient>
<linearGradient id="paint23_linear_2604_4691" x1="617.798" y1="822.787" x2="1283.2" y2="822.787" gradientUnits="userSpaceOnUse">
<stop stop-color="#CCE0D6" stop-opacity="0.2"/>
<stop offset="1" stop-color="#006633" stop-opacity="0.22"/>
</linearGradient>
<linearGradient id="paint24_linear_2604_4691" x1="644.633" y1="822.79" x2="1256.37" y2="822.79" gradientUnits="userSpaceOnUse">
<stop stop-color="#CCE0D6" stop-opacity="0.2"/>
<stop offset="1" stop-color="#006633" stop-opacity="0.22"/>
</linearGradient>
<linearGradient id="paint25_linear_2604_4691" x1="671.44" y1="822.792" x2="1229.56" y2="822.792" gradientUnits="userSpaceOnUse">
<stop stop-color="#CCE0D6" stop-opacity="0.2"/>
<stop offset="1" stop-color="#006633" stop-opacity="0.22"/>
</linearGradient>
<linearGradient id="paint26_linear_2604_4691" x1="698.275" y1="822.788" x2="1202.73" y2="822.788" gradientUnits="userSpaceOnUse">
<stop stop-color="#CCE0D6" stop-opacity="0.2"/>
<stop offset="1" stop-color="#006633" stop-opacity="0.22"/>
</linearGradient>
<linearGradient id="paint27_linear_2604_4691" x1="725.08" y1="822.789" x2="1175.92" y2="822.789" gradientUnits="userSpaceOnUse">
<stop stop-color="#CCE0D6" stop-opacity="0.2"/>
<stop offset="1" stop-color="#006633" stop-opacity="0.22"/>
</linearGradient>
<linearGradient id="paint28_linear_2604_4691" x1="751.916" y1="822.789" x2="1149.08" y2="822.789" gradientUnits="userSpaceOnUse">
<stop stop-color="#CCE0D6" stop-opacity="0.2"/>
<stop offset="1" stop-color="#006633" stop-opacity="0.22"/>
</linearGradient>
<linearGradient id="paint29_linear_2604_4691" x1="778.722" y1="822.79" x2="1122.28" y2="822.79" gradientUnits="userSpaceOnUse">
<stop stop-color="#CCE0D6" stop-opacity="0.2"/>
<stop offset="1" stop-color="#006633" stop-opacity="0.22"/>
</linearGradient>
<linearGradient id="paint30_linear_2604_4691" x1="805.527" y1="822.788" x2="1095.47" y2="822.788" gradientUnits="userSpaceOnUse">
<stop stop-color="#CCE0D6" stop-opacity="0.2"/>
<stop offset="1" stop-color="#006633" stop-opacity="0.22"/>
</linearGradient>
</defs>
</svg>
