<svg width="36" height="36" viewBox="0 0 36 36" fill="none" xmlns="http://www.w3.org/2000/svg">
<rect x="0.886719" width="34.2295" height="36" rx="8" fill="#2A2B2F"/>
<path d="M9.44531 11.421C9.44531 10.8438 9.63805 10.3676 10.0235 9.99246C10.409 9.61727 10.9101 9.42969 11.5268 9.42969C12.1326 9.42969 12.6227 9.61438 12.9971 9.9838C13.3826 10.3648 13.5753 10.8611 13.5753 11.473C13.5753 12.0271 13.3881 12.4888 13.0136 12.8583C12.6282 13.2392 12.1216 13.4297 11.4938 13.4297H11.4773C10.8715 13.4297 10.3815 13.2392 10.007 12.8583C9.63253 12.4773 9.44531 11.9982 9.44531 11.421ZM9.66007 26.5725V15.0054H13.3275V26.5725H9.66007ZM15.3595 26.5725H19.0269V20.1137C19.0269 19.7096 19.071 19.3979 19.1591 19.1786C19.3133 18.7861 19.5473 18.4542 19.8612 18.1829C20.1751 17.9116 20.5688 17.776 21.0424 17.776C22.2759 17.776 22.8926 18.6476 22.8926 20.3907V26.5725H26.5601V19.9405C26.5601 18.232 26.1746 16.9362 25.4037 16.0531C24.6327 15.1699 23.614 14.7284 22.3475 14.7284C20.9267 14.7284 19.8199 15.3691 19.0269 16.6505V16.6851H19.0104L19.0269 16.6505V15.0054H15.3595C15.3815 15.3748 15.3925 16.5235 15.3925 18.4513C15.3925 20.3792 15.3815 23.0862 15.3595 26.5725Z" fill="white"/>
</svg>
