<svg width="118" height="36" viewBox="0 0 118 36" fill="none" xmlns="http://www.w3.org/2000/svg">
<path d="M44.0462 12.9091H46.4433L50.6109 23.0852H50.7643L54.9319 12.9091H57.3289V26H55.4497V16.527H55.3282L51.4674 25.9808H49.9077L46.047 16.5206H45.9255V26H44.0462V12.9091ZM62.9044 26.2173C62.2822 26.2173 61.7197 26.1023 61.2169 25.8722C60.714 25.6378 60.3156 25.299 60.0216 24.8558C59.7318 24.4126 59.5869 23.8693 59.5869 23.2259C59.5869 22.6719 59.6934 22.2159 59.9065 21.858C60.1196 21.5 60.4072 21.2166 60.7694 21.0078C61.1316 20.799 61.5365 20.6413 61.9839 20.5348C62.4314 20.4283 62.8873 20.3473 63.3518 20.2919C63.9399 20.2237 64.4172 20.1683 64.7836 20.1257C65.1501 20.0788 65.4164 20.0043 65.5826 19.902C65.7488 19.7997 65.8319 19.6335 65.8319 19.4034V19.3587C65.8319 18.8004 65.6743 18.3679 65.3589 18.0611C65.0478 17.7543 64.5834 17.6009 63.9655 17.6009C63.322 17.6009 62.8149 17.7436 62.4441 18.0291C62.0777 18.3104 61.8241 18.6236 61.6835 18.9688L59.8873 18.5597C60.1004 17.9631 60.4115 17.4815 60.8206 17.1151C61.2339 16.7443 61.7091 16.4759 62.246 16.3097C62.7829 16.1392 63.3476 16.054 63.9399 16.054C64.3319 16.054 64.7474 16.1009 65.1863 16.1946C65.6295 16.2841 66.0429 16.4503 66.4264 16.6932C66.8142 16.9361 67.1316 17.2834 67.3788 17.7351C67.626 18.1825 67.7495 18.7642 67.7495 19.4801V26H65.8831V24.6577H65.8064C65.6828 24.9048 65.4974 25.1477 65.2503 25.3864C65.0031 25.625 64.6856 25.8232 64.2978 25.9808C63.9101 26.1385 63.4456 26.2173 62.9044 26.2173ZM63.3199 24.6832C63.8483 24.6832 64.3 24.5788 64.675 24.37C65.0542 24.1612 65.3419 23.8885 65.5379 23.5518C65.7382 23.2109 65.8383 22.8466 65.8383 22.4588V21.1932C65.7701 21.2614 65.638 21.3253 65.442 21.3849C65.2503 21.4403 65.0308 21.4893 64.7836 21.532C64.5365 21.5703 64.2957 21.6065 64.0613 21.6406C63.827 21.6705 63.6309 21.696 63.4733 21.7173C63.1025 21.7642 62.7637 21.843 62.4569 21.9538C62.1544 22.0646 61.9115 22.2244 61.7282 22.4332C61.5493 22.6378 61.4598 22.9105 61.4598 23.2514C61.4598 23.7244 61.6345 24.0824 61.9839 24.3253C62.3334 24.5639 62.7787 24.6832 63.3199 24.6832ZM74.4117 29.8864C73.6318 29.8864 72.9607 29.7841 72.3982 29.5795C71.8399 29.375 71.384 29.1044 71.0303 28.7678C70.6766 28.4311 70.4124 28.0625 70.2376 27.6619L71.8804 26.9844C71.9955 27.1719 72.1489 27.37 72.3406 27.5788C72.5367 27.7919 72.8009 27.973 73.1332 28.1222C73.4699 28.2713 73.9024 28.3459 74.4308 28.3459C75.1553 28.3459 75.754 28.169 76.227 27.8153C76.7 27.4659 76.9365 26.9077 76.9365 26.1406V24.2102H76.8151C76.7 24.419 76.5338 24.6513 76.3165 24.907C76.1034 25.1626 75.8094 25.3842 75.4344 25.5717C75.0594 25.7592 74.5715 25.853 73.9706 25.853C73.195 25.853 72.4962 25.6719 71.874 25.3097C71.2561 24.9432 70.7661 24.4041 70.4038 23.6925C70.0459 22.9766 69.8669 22.0966 69.8669 21.0526C69.8669 20.0085 70.0438 19.1136 70.3974 18.3679C70.7554 17.6222 71.2455 17.0511 71.8676 16.6548C72.4898 16.2543 73.195 16.054 73.9834 16.054C74.5928 16.054 75.0849 16.1562 75.4599 16.3608C75.8349 16.5611 76.1269 16.7955 76.3357 17.0639C76.5487 17.3324 76.7128 17.5689 76.8278 17.7734H76.9685V16.1818H78.8413V26.2173C78.8413 27.0611 78.6453 27.7536 78.2533 28.2947C77.8612 28.8359 77.3307 29.2365 76.6617 29.4964C75.9969 29.7564 75.2469 29.8864 74.4117 29.8864ZM74.3925 24.2678C74.9422 24.2678 75.4067 24.1399 75.7859 23.8842C76.1695 23.6243 76.4592 23.2536 76.6553 22.772C76.8555 22.2862 76.9557 21.7045 76.9557 21.027C76.9557 20.3665 76.8577 19.7848 76.6617 19.282C76.4656 18.7791 76.178 18.3871 75.7987 18.1058C75.4195 17.8203 74.9507 17.6776 74.3925 17.6776C73.8172 17.6776 73.3378 17.8267 72.9543 18.125C72.5707 18.419 72.281 18.8196 72.085 19.3267C71.8932 19.8338 71.7973 20.4006 71.7973 21.027C71.7973 21.6705 71.8953 22.2351 72.0913 22.7209C72.2874 23.2067 72.5771 23.5859 72.9607 23.8587C73.3484 24.1314 73.8257 24.2678 74.3925 24.2678ZM83.3158 20.1705V26H81.4046V16.1818H83.2391V17.7798H83.3605C83.5864 17.2599 83.9401 16.8423 84.4216 16.527C84.9074 16.2116 85.5189 16.054 86.2561 16.054C86.9251 16.054 87.5111 16.1946 88.0139 16.4759C88.5168 16.7528 88.9067 17.1662 89.1837 17.7159C89.4607 18.2656 89.5992 18.9453 89.5992 19.755V26H87.6879V19.9851C87.6879 19.2734 87.5026 18.7173 87.1318 18.3168C86.7611 17.9119 86.2519 17.7095 85.6041 17.7095C85.1609 17.7095 84.7668 17.8054 84.4216 17.9972C84.0807 18.1889 83.8101 18.4702 83.6098 18.8409C83.4138 19.2074 83.3158 19.6506 83.3158 20.1705ZM92.1624 26V16.1818H94.0736V26H92.1624ZM93.1276 14.6669C92.7952 14.6669 92.5097 14.5561 92.271 14.3345C92.0367 14.1087 91.9195 13.8402 91.9195 13.5291C91.9195 13.2138 92.0367 12.9453 92.271 12.7237C92.5097 12.4979 92.7952 12.3849 93.1276 12.3849C93.4599 12.3849 93.7433 12.4979 93.9777 12.7237C94.2163 12.9453 94.3357 13.2138 94.3357 13.5291C94.3357 13.8402 94.2163 14.1087 93.9777 14.3345C93.7433 14.5561 93.4599 14.6669 93.1276 14.6669ZM101.317 16.1818V17.7159H95.7691V16.1818H101.317ZM97.2904 26V15.044C97.2904 14.4304 97.4246 13.9212 97.6931 13.5163C97.9615 13.1072 98.3174 12.8026 98.7606 12.6023C99.2037 12.3977 99.6853 12.2955 100.205 12.2955C100.589 12.2955 100.917 12.3274 101.19 12.3913C101.462 12.451 101.665 12.5064 101.797 12.5575L101.349 14.1044C101.26 14.0788 101.145 14.049 101.004 14.0149C100.864 13.9766 100.693 13.9574 100.493 13.9574C100.028 13.9574 99.6959 14.0724 99.4956 14.3026C99.2996 14.5327 99.2016 14.8651 99.2016 15.2997V26H97.2904ZM103.289 26V16.1818H105.201V26H103.289ZM104.255 14.6669C103.922 14.6669 103.637 14.5561 103.398 14.3345C103.164 14.1087 103.046 13.8402 103.046 13.5291C103.046 13.2138 103.164 12.9453 103.398 12.7237C103.637 12.4979 103.922 12.3849 104.255 12.3849C104.587 12.3849 104.87 12.4979 105.105 12.7237C105.343 12.9453 105.463 13.2138 105.463 13.5291C105.463 13.8402 105.343 14.1087 105.105 14.3345C104.87 14.5561 104.587 14.6669 104.255 14.6669ZM111.907 26.1982C110.957 26.1982 110.139 25.983 109.453 25.5526C108.771 25.1179 108.247 24.5192 107.88 23.7564C107.514 22.9936 107.331 22.12 107.331 21.1357C107.331 20.1385 107.518 19.2585 107.893 18.4957C108.268 17.7287 108.797 17.13 109.478 16.6996C110.16 16.2692 110.964 16.054 111.888 16.054C112.634 16.054 113.299 16.1925 113.883 16.4695C114.466 16.7422 114.937 17.1257 115.295 17.62C115.657 18.1143 115.873 18.6918 115.941 19.3523H114.081C113.978 18.892 113.744 18.4957 113.378 18.1634C113.015 17.831 112.53 17.6648 111.92 17.6648C111.388 17.6648 110.921 17.8054 110.52 18.0866C110.124 18.3636 109.815 18.7599 109.593 19.2756C109.372 19.7869 109.261 20.392 109.261 21.0909C109.261 21.8068 109.37 22.4247 109.587 22.9446C109.804 23.4645 110.111 23.8672 110.508 24.1527C110.908 24.4382 111.379 24.581 111.92 24.581C112.282 24.581 112.611 24.5149 112.905 24.3828C113.203 24.2464 113.452 24.0526 113.652 23.8011C113.857 23.5497 114 23.2472 114.081 22.8935H115.941C115.873 23.5284 115.666 24.0952 115.321 24.5938C114.976 25.0923 114.513 25.4844 113.934 25.7699C113.358 26.0554 112.683 26.1982 111.907 26.1982Z" fill="#2A2B2F"/>
<circle cx="18" cy="18" r="16.9992" stroke="#2A2B2F" strokeWidth="2.00154"/>
<g clipPath="url(#clip0_2652_15338)">
<path d="M6.22607 21.6938C6.22607 19.9356 7.65138 18.5103 9.40959 18.5103C11.1678 18.5103 12.5931 19.9356 12.5931 21.6938C12.5931 23.452 11.1678 24.8773 9.40959 24.8773C7.65138 24.8773 6.22607 23.452 6.22607 21.6938Z" fill="#2A2B2F"/>
<path d="M15.6173 17.5444L13.4392 18.8019C12.3184 16.8605 11.5384 16.3287 10.9946 15.6183C10.8918 15.484 10.7332 15.2497 10.5441 14.9583C9.5885 13.4851 10.1171 11.5299 11.6379 10.6519L13.6276 14.0982L15.6173 17.5444Z" fill="#2A2B2F"/>
<path d="M15.6175 17.5444L17.7955 16.287C18.9164 18.2283 19.6964 18.7602 20.2401 19.4706C20.3429 19.6049 20.5015 19.8391 20.6906 20.1305C21.6462 21.6037 21.1176 23.559 19.5969 24.437L17.6072 20.9907L15.6175 17.5444Z" fill="#2A2B2F"/>
<path d="M15.6174 17.5443L17.7955 16.2869C16.6746 14.3455 16.604 13.404 16.2607 12.578C16.1958 12.4218 16.0722 12.1673 15.9143 11.8578C15.1163 10.2936 13.1588 9.77382 11.638 10.6518L13.6277 14.0981L15.6174 17.5443Z" fill="#2A2B2F"/>
<path d="M15.6174 17.5445L13.4394 18.802C14.5603 20.7434 14.6309 21.6848 14.9742 22.5109C15.0391 22.6671 15.1627 22.9216 15.3205 23.231C16.1185 24.7952 18.0761 25.3151 19.5969 24.437L17.6071 20.9908L15.6174 17.5445Z" fill="#2A2B2F"/>
<path d="M24.2004 17.5444L22.0224 18.8019C20.9015 16.8605 20.1215 16.3287 19.5778 15.6183C19.475 15.484 19.3163 15.2497 19.1273 14.9583C18.1716 13.4851 18.7003 11.5299 20.221 10.6519L22.2107 14.0982L24.2004 17.5444Z" fill="#2A2B2F"/>
<path d="M24.2004 17.5445L26.3784 16.287C27.4993 18.2284 28.2793 18.7602 28.823 19.4706C28.9258 19.6049 29.0844 19.8391 29.2735 20.1305C30.2291 21.6037 29.7005 23.559 28.1798 24.437L26.1901 20.9907L24.2004 17.5445Z" fill="#2A2B2F"/>
<path d="M24.2003 17.5443L26.3783 16.2868C25.2575 14.3455 25.1869 13.404 24.8435 12.5779C24.7786 12.4218 24.6551 12.1673 24.4972 11.8578C23.6992 10.2936 21.7416 9.77382 20.2209 10.6518L22.2106 14.0981L24.2003 17.5443Z" fill="#2A2B2F"/>
<path d="M24.2003 17.5445L22.0223 18.802C23.1432 20.7434 23.2138 21.6848 23.5571 22.5109C23.622 22.6671 23.7455 22.9216 23.9034 23.231C24.7014 24.7952 26.659 25.3151 28.1797 24.437L26.19 20.9908L24.2003 17.5445Z" fill="#2A2B2F"/>
</g>
<defs>
<clipPath id="clip0_2652_15338">
<rect width="23.572" height="14.7052" fill="white" transform="translate(6.22607 10.1748)"/>
</clipPath>
</defs>
</svg>
