<svg width="118" height="36" viewBox="0 0 118 36" fill="none" xmlns="http://www.w3.org/2000/svg">
<circle cx="18" cy="18" r="16.9992" stroke="white" strokeWidth="2.00154"/>
<g clipPath="url(#clip0_2260_4012)">
<path d="M6.22607 21.6943C6.22607 19.9361 7.65138 18.5107 9.40959 18.5107C11.1678 18.5107 12.5931 19.9361 12.5931 21.6943C12.5931 23.4525 11.1678 24.8778 9.40959 24.8778C7.65138 24.8778 6.22607 23.4525 6.22607 21.6943Z" fill="white"/>
<path d="M15.6173 17.5449L13.4392 18.8024C12.3184 16.861 11.5384 16.3291 10.9946 15.6188C10.8918 15.4845 10.7332 15.2502 10.5441 14.9588C9.5885 13.4856 10.1171 11.5304 11.6379 10.6524L13.6276 14.0986L15.6173 17.5449Z" fill="white"/>
<path d="M15.6176 17.5449L17.7956 16.2874C18.9165 18.2288 19.6965 18.7607 20.2402 19.4711C20.343 19.6053 20.5017 19.8396 20.6907 20.131C21.6464 21.6042 21.1177 23.5595 19.597 24.4375L17.6073 20.9912L15.6176 17.5449Z" fill="white"/>
<path d="M15.6177 17.5448L17.7957 16.2873C16.6748 14.346 16.6042 13.4045 16.2609 12.5784C16.196 12.4223 16.0725 12.1678 15.9146 11.8583C15.1166 10.2941 13.159 9.7743 11.6383 10.6523L13.628 14.0986L15.6177 17.5448Z" fill="white"/>
<path d="M15.6177 17.545L13.4397 18.8025C14.5605 20.7439 14.6311 21.6853 14.9745 22.5114C15.0393 22.6675 15.1629 22.9221 15.3208 23.2315C16.1188 24.7957 18.0764 25.3155 19.5971 24.4375L17.6074 20.9913L15.6177 17.545Z" fill="white"/>
<path d="M24.2003 17.5449L22.0222 18.8024C20.9014 16.861 20.1214 16.3291 19.5776 15.6188C19.4749 15.4845 19.3162 15.2502 19.1272 14.9588C18.1715 13.4856 18.7001 11.5304 20.2209 10.6524L22.2106 14.0986L24.2003 17.5449Z" fill="white"/>
<path d="M24.2004 17.5449L26.3784 16.2875C27.4993 18.2288 28.2793 18.7607 28.823 19.4711C28.9258 19.6053 29.0844 19.8396 29.2735 20.131C30.2291 21.6042 29.7005 23.5595 28.1798 24.4375L26.1901 20.9912L24.2004 17.5449Z" fill="white"/>
<path d="M24.2004 17.5448L26.3785 16.2873C25.2576 14.3459 25.187 13.4045 24.8437 12.5784C24.7788 12.4223 24.6552 12.1678 24.4974 11.8583C23.6994 10.2941 21.7418 9.7743 20.221 10.6523L22.2107 14.0986L24.2004 17.5448Z" fill="white"/>
<path d="M24.2005 17.545L22.0224 18.8025C23.1433 20.7439 23.2139 21.6853 23.5572 22.5114C23.6221 22.6676 23.7457 22.9221 23.9035 23.2315C24.7015 24.7957 26.6591 25.3155 28.1799 24.4375L26.1902 20.9913L24.2005 17.545Z" fill="white"/>
</g>
<path d="M44.0461 11.9091H46.4431L50.6108 22.0852H50.7642L54.9318 11.9091H57.3288V25H55.4495V15.527H55.3281L51.4673 24.9808H49.9076L46.0468 15.5206H45.9254V25H44.0461V11.9091ZM62.9043 25.2173C62.2821 25.2173 61.7196 25.1023 61.2168 24.8722C60.7139 24.6378 60.3155 24.299 60.0214 23.8558C59.7317 23.4126 59.5868 22.8693 59.5868 22.2259C59.5868 21.6719 59.6933 21.2159 59.9064 20.858C60.1195 20.5 60.4071 20.2166 60.7693 20.0078C61.1315 19.799 61.5364 19.6413 61.9838 19.5348C62.4312 19.4283 62.8872 19.3473 63.3517 19.2919C63.9398 19.2237 64.417 19.1683 64.7835 19.1257C65.15 19.0788 65.4163 19.0043 65.5825 18.902C65.7487 18.7997 65.8318 18.6335 65.8318 18.4034V18.3587C65.8318 17.8004 65.6741 17.3679 65.3588 17.0611C65.0477 16.7543 64.5832 16.6009 63.9653 16.6009C63.3219 16.6009 62.8148 16.7436 62.444 17.0291C62.0775 17.3104 61.824 17.6236 61.6834 17.9688L59.8872 17.5597C60.1003 16.9631 60.4114 16.4815 60.8204 16.1151C61.2338 15.7443 61.7089 15.4759 62.2459 15.3097C62.7828 15.1392 63.3474 15.054 63.9398 15.054C64.3318 15.054 64.7473 15.1009 65.1862 15.1946C65.6294 15.2841 66.0427 15.4503 66.4263 15.6932C66.8141 15.9361 67.1315 16.2834 67.3787 16.7351C67.6258 17.1825 67.7494 17.7642 67.7494 18.4801V25H65.8829V23.6577H65.8062C65.6827 23.9048 65.4973 24.1477 65.2501 24.3864C65.003 24.625 64.6855 24.8232 64.2977 24.9808C63.9099 25.1385 63.4454 25.2173 62.9043 25.2173ZM63.3197 23.6832C63.8481 23.6832 64.2998 23.5788 64.6748 23.37C65.0541 23.1612 65.3418 22.8885 65.5378 22.5518C65.7381 22.2109 65.8382 21.8466 65.8382 21.4588V20.1932C65.77 20.2614 65.6379 20.3253 65.4419 20.3849C65.2501 20.4403 65.0307 20.4893 64.7835 20.532C64.5364 20.5703 64.2956 20.6065 64.0612 20.6406C63.8268 20.6705 63.6308 20.696 63.4731 20.7173C63.1024 20.7642 62.7636 20.843 62.4568 20.9538C62.1543 21.0646 61.9114 21.2244 61.7281 21.4332C61.5491 21.6378 61.4597 21.9105 61.4597 22.2514C61.4597 22.7244 61.6344 23.0824 61.9838 23.3253C62.3332 23.5639 62.7785 23.6832 63.3197 23.6832ZM74.4115 28.8864C73.6317 28.8864 72.9605 28.7841 72.398 28.5795C71.8398 28.375 71.3838 28.1044 71.0301 27.7678C70.6764 27.4311 70.4122 27.0625 70.2375 26.6619L71.8803 25.9844C71.9953 26.1719 72.1487 26.37 72.3405 26.5788C72.5365 26.7919 72.8007 26.973 73.1331 27.1222C73.4698 27.2713 73.9023 27.3459 74.4307 27.3459C75.1551 27.3459 75.7539 27.169 76.2269 26.8153C76.6999 26.4659 76.9364 25.9077 76.9364 25.1406V23.2102H76.8149C76.6999 23.419 76.5337 23.6513 76.3164 23.907C76.1033 24.1626 75.8093 24.3842 75.4343 24.5717C75.0593 24.7592 74.5713 24.853 73.9705 24.853C73.1949 24.853 72.496 24.6719 71.8739 24.3097C71.256 23.9432 70.7659 23.4041 70.4037 22.6925C70.0458 21.9766 69.8668 21.0966 69.8668 20.0526C69.8668 19.0085 70.0436 18.1136 70.3973 17.3679C70.7553 16.6222 71.2453 16.0511 71.8675 15.6548C72.4897 15.2543 73.1949 15.054 73.9833 15.054C74.5926 15.054 75.0848 15.1562 75.4598 15.3608C75.8348 15.5611 76.1267 15.7955 76.3355 16.0639C76.5486 16.3324 76.7127 16.5689 76.8277 16.7734H76.9684V15.1818H78.8412V25.2173C78.8412 26.0611 78.6452 26.7536 78.2532 27.2947C77.8611 27.8359 77.3306 28.2365 76.6615 28.4964C75.9968 28.7564 75.2468 28.8864 74.4115 28.8864ZM74.3924 23.2678C74.9421 23.2678 75.4066 23.1399 75.7858 22.8842C76.1693 22.6243 76.4591 22.2536 76.6551 21.772C76.8554 21.2862 76.9556 20.7045 76.9556 20.027C76.9556 19.3665 76.8576 18.7848 76.6615 18.282C76.4655 17.7791 76.1779 17.3871 75.7986 17.1058C75.4193 16.8203 74.9506 16.6776 74.3924 16.6776C73.8171 16.6776 73.3377 16.8267 72.9541 17.125C72.5706 17.419 72.2809 17.8196 72.0848 18.3267C71.8931 18.8338 71.7972 19.4006 71.7972 20.027C71.7972 20.6705 71.8952 21.2351 72.0912 21.7209C72.2872 22.2067 72.577 22.5859 72.9605 22.8587C73.3483 23.1314 73.8256 23.2678 74.3924 23.2678ZM83.3157 19.1705V25H81.4044V15.1818H83.2389V16.7798H83.3604C83.5862 16.2599 83.9399 15.8423 84.4215 15.527C84.9073 15.2116 85.5188 15.054 86.256 15.054C86.925 15.054 87.511 15.1946 88.0138 15.4759C88.5166 15.7528 88.9066 16.1662 89.1835 16.7159C89.4605 17.2656 89.599 17.9453 89.599 18.755V25H87.6878V18.9851C87.6878 18.2734 87.5024 17.7173 87.1317 17.3168C86.761 16.9119 86.2517 16.7095 85.604 16.7095C85.1608 16.7095 84.7666 16.8054 84.4215 16.9972C84.0806 17.1889 83.81 17.4702 83.6097 17.8409C83.4137 18.2074 83.3157 18.6506 83.3157 19.1705ZM92.1622 25V15.1818H94.0735V25H92.1622ZM93.1274 13.6669C92.7951 13.6669 92.5095 13.5561 92.2709 13.3345C92.0365 13.1087 91.9193 12.8402 91.9193 12.5291C91.9193 12.2138 92.0365 11.9453 92.2709 11.7237C92.5095 11.4979 92.7951 11.3849 93.1274 11.3849C93.4598 11.3849 93.7432 11.4979 93.9776 11.7237C94.2162 11.9453 94.3355 12.2138 94.3355 12.5291C94.3355 12.8402 94.2162 13.1087 93.9776 13.3345C93.7432 13.5561 93.4598 13.6669 93.1274 13.6669ZM101.317 15.1818V16.7159H95.769V15.1818H101.317ZM97.2903 25V14.044C97.2903 13.4304 97.4245 12.9212 97.693 12.5163C97.9614 12.1072 98.3172 11.8026 98.7604 11.6023C99.2036 11.3977 99.6851 11.2955 100.205 11.2955C100.589 11.2955 100.917 11.3274 101.189 11.3913C101.462 11.451 101.665 11.5064 101.797 11.5575L101.349 13.1044C101.26 13.0788 101.145 13.049 101.004 13.0149C100.863 12.9766 100.693 12.9574 100.493 12.9574C100.028 12.9574 99.6958 13.0724 99.4955 13.3026C99.2995 13.5327 99.2015 13.8651 99.2015 14.2997V25H97.2903ZM103.289 25V15.1818H105.2V25H103.289ZM104.254 13.6669C103.922 13.6669 103.636 13.5561 103.398 13.3345C103.163 13.1087 103.046 12.8402 103.046 12.5291C103.046 12.2138 103.163 11.9453 103.398 11.7237C103.636 11.4979 103.922 11.3849 104.254 11.3849C104.587 11.3849 104.87 11.4979 105.105 11.7237C105.343 11.9453 105.462 12.2138 105.462 12.5291C105.462 12.8402 105.343 13.1087 105.105 13.3345C104.87 13.5561 104.587 13.6669 104.254 13.6669ZM111.907 25.1982C110.957 25.1982 110.139 24.983 109.453 24.5526C108.771 24.1179 108.247 23.5192 107.88 22.7564C107.514 21.9936 107.331 21.12 107.331 20.1357C107.331 19.1385 107.518 18.2585 107.893 17.4957C108.268 16.7287 108.796 16.13 109.478 15.6996C110.16 15.2692 110.963 15.054 111.888 15.054C112.634 15.054 113.299 15.1925 113.882 15.4695C114.466 15.7422 114.937 16.1257 115.295 16.62C115.657 17.1143 115.872 17.6918 115.941 18.3523H114.081C113.978 17.892 113.744 17.4957 113.377 17.1634C113.015 16.831 112.529 16.6648 111.92 16.6648C111.387 16.6648 110.921 16.8054 110.52 17.0866C110.124 17.3636 109.815 17.7599 109.593 18.2756C109.372 18.7869 109.261 19.392 109.261 20.0909C109.261 20.8068 109.37 21.4247 109.587 21.9446C109.804 22.4645 110.111 22.8672 110.507 23.1527C110.908 23.4382 111.379 23.581 111.92 23.581C112.282 23.581 112.61 23.5149 112.904 23.3828C113.203 23.2464 113.452 23.0526 113.652 22.8011C113.857 22.5497 114 22.2472 114.081 21.8935H115.941C115.872 22.5284 115.666 23.0952 115.321 23.5938C114.975 24.0923 114.513 24.4844 113.934 24.7699C113.358 25.0554 112.683 25.1982 111.907 25.1982Z" fill="white"/>
<defs>
<clipPath id="clip0_2260_4012">
<rect width="23.572" height="14.7052" fill="white" transform="translate(6.22607 10.1748)"/>
</clipPath>
</defs>
</svg>
