<svg width="35" height="36" viewBox="0 0 35 36" fill="none" xmlns="http://www.w3.org/2000/svg">
<rect x="0.441406" width="34.2295" height="36" rx="8" fill="#2A2B2F"/>
<path d="M20.4356 10.6986V10.6953H21.2381L21.5313 10.7569C21.7268 10.7969 21.9042 10.8493 22.0637 10.9141C22.2232 10.979 22.3775 11.0546 22.5267 11.141C22.6759 11.2275 22.8112 11.3156 22.9326 11.4052C23.0529 11.4939 23.161 11.5879 23.2567 11.6873C23.3513 11.7878 23.4989 11.8137 23.6996 11.7651C23.9002 11.7164 24.1162 11.6489 24.3477 11.5625C24.5792 11.476 24.8081 11.3788 25.0345 11.2707C25.2608 11.1626 25.3987 11.094 25.4481 11.0649C25.4964 11.0346 25.5222 11.0184 25.5252 11.0162L25.5283 11.0114L25.5437 11.0033L25.5592 10.9952L25.5746 10.9871L25.59 10.979L25.5931 10.9741L25.5978 10.9709L25.6024 10.9676L25.6055 10.9628L25.6209 10.9579L25.6363 10.9546L25.6333 10.979L25.6286 11.0033L25.6209 11.0276L25.6132 11.0519L25.6055 11.0681L25.5978 11.0843L25.59 11.1086C25.5849 11.1248 25.5798 11.1464 25.5746 11.1735C25.5695 11.2005 25.5206 11.3085 25.428 11.4976C25.3354 11.6867 25.2197 11.8785 25.0808 12.073C24.9419 12.2675 24.8174 12.4145 24.7073 12.5139C24.5962 12.6144 24.5226 12.6846 24.4866 12.7246C24.4506 12.7657 24.4069 12.8035 24.3554 12.8381L24.2783 12.8916L24.2628 12.8997L24.2474 12.9078L24.2443 12.9126L24.2397 12.9159L24.2351 12.9191L24.232 12.924L24.2165 12.9321L24.2011 12.9402L24.198 12.945L24.1934 12.9483L24.1888 12.9515L24.1857 12.9564L24.1826 12.9612L24.178 12.9645L24.1733 12.9677L24.1702 12.9726H24.2474L24.6795 12.8753C24.9676 12.8105 25.2428 12.7322 25.5052 12.6403L25.9218 12.4944L25.9681 12.4782L25.9913 12.4701L26.0067 12.462L26.0222 12.4539L26.0376 12.4458L26.053 12.4377L26.0839 12.4329L26.1148 12.4296V12.462L26.107 12.4653L26.0993 12.4701L26.0963 12.475L26.0916 12.4782L26.087 12.4815L26.0839 12.4863L26.0808 12.4912L26.0762 12.4944L26.0715 12.4977L26.0685 12.5026L26.0654 12.5074L26.0607 12.5107L26.053 12.5269L26.0453 12.5431L26.0407 12.5463C26.0386 12.5496 25.9733 12.6414 25.8447 12.8219C25.7161 13.0034 25.6466 13.0952 25.6363 13.0974C25.6261 13.1006 25.6117 13.1168 25.5931 13.146C25.5756 13.1763 25.4666 13.2968 25.266 13.5075C25.0653 13.7182 24.8689 13.9056 24.6765 14.0699C24.483 14.2352 24.3853 14.4384 24.3832 14.6793C24.3801 14.9192 24.3683 15.1905 24.3477 15.493C24.3272 15.7956 24.2886 16.1224 24.232 16.4736C24.1754 16.8248 24.0879 17.2219 23.9696 17.6649C23.8513 18.108 23.7073 18.5402 23.5375 18.9616C23.3678 19.383 23.1903 19.7612 23.0051 20.0962C22.8199 20.4312 22.6501 20.7148 22.4958 20.9471C22.3415 21.1794 22.1846 21.3983 22.0251 21.6036C21.8657 21.8089 21.664 22.0401 21.4202 22.2973C21.1753 22.5534 21.0416 22.6939 21.0189 22.7187C20.9953 22.7425 20.8944 22.8311 20.7164 22.9845C20.5395 23.139 20.3491 23.2936 20.1454 23.4481C19.9427 23.6015 19.7565 23.7296 19.5868 23.8322C19.417 23.9349 19.2123 24.0521 18.9725 24.184C18.7339 24.3169 18.4756 24.44 18.1978 24.5535C17.92 24.667 17.6268 24.7723 17.3182 24.8696C17.0095 24.9668 16.7112 25.0425 16.4231 25.0965C16.135 25.1505 15.8084 25.1964 15.4431 25.2343L14.8953 25.291V25.2991H13.8921V25.291L13.761 25.2829C13.6735 25.2775 13.6015 25.2721 13.5449 25.2667C13.4883 25.2613 13.2748 25.2315 12.9044 25.1775C12.5341 25.1235 12.2434 25.0695 12.0325 25.0154C11.8216 24.9614 11.5078 24.8588 11.0911 24.7075C10.6744 24.5562 10.3179 24.4033 10.0216 24.2488C9.72637 24.0953 9.54118 23.9981 9.46606 23.957C9.39199 23.917 9.30865 23.8674 9.21606 23.8079L9.07716 23.7188L9.07409 23.7139L9.06945 23.7107L9.06482 23.7074L9.06173 23.7026L9.0463 23.6945L9.03087 23.6864L9.02779 23.6815L9.02315 23.6782L9.01852 23.675L9.01543 23.6701L9.01236 23.6653L9.00772 23.662H9V23.6296L9.01543 23.6329L9.03087 23.6377L9.10031 23.6458C9.14661 23.6512 9.27265 23.6593 9.47841 23.6701C9.68419 23.681 9.90281 23.681 10.1343 23.6701C10.3658 23.6593 10.6024 23.635 10.8442 23.5972C11.086 23.5594 11.3715 23.4946 11.7007 23.4027C12.0299 23.3109 12.3324 23.2017 12.6082 23.0753C12.8829 22.9478 13.0783 22.8527 13.1946 22.79C13.3098 22.7284 13.4857 22.6139 13.7224 22.4464L14.0773 22.1952L14.0804 22.1903L14.085 22.1871L14.0897 22.1838L14.0928 22.179L14.0958 22.1741L14.1005 22.1709L14.1051 22.1676L14.1082 22.1628L14.1236 22.1579L14.1391 22.1547L14.1421 22.1384L14.1468 22.1222L14.1514 22.119L14.1545 22.1141L14.031 22.106C13.9487 22.1006 13.869 22.0952 13.7918 22.0898C13.7147 22.0844 13.5938 22.0601 13.4292 22.0169C13.2646 21.9737 13.0871 21.9088 12.8967 21.8224C12.7064 21.7359 12.5212 21.6333 12.3412 21.5144C12.1611 21.3956 12.031 21.2967 11.9507 21.2178C11.8715 21.14 11.7686 21.0298 11.6421 20.8872C11.5165 20.7435 11.4075 20.5959 11.3149 20.4447C11.2223 20.2934 11.1338 20.1189 11.0495 19.9211L10.9214 19.6261L10.9136 19.6018L10.9059 19.5775L10.9013 19.5613L10.8982 19.5451L10.9214 19.5483L10.9445 19.5532L11.1143 19.5775C11.2274 19.5937 11.4049 19.5991 11.6467 19.5937C11.8885 19.5883 12.0557 19.5775 12.1483 19.5613C12.2408 19.5451 12.2974 19.5343 12.318 19.5289L12.3489 19.5208L12.3875 19.5127L12.426 19.5046L12.4291 19.4997L12.4338 19.4965L12.4384 19.4932L12.4415 19.4884L12.4106 19.4803L12.3797 19.4722L12.3489 19.4641L12.318 19.456L12.2871 19.4479C12.2666 19.4425 12.2306 19.4316 12.1791 19.4154C12.1277 19.3992 11.9888 19.3398 11.7624 19.2371C11.5361 19.1345 11.356 19.0345 11.2223 18.9373C11.0882 18.8398 10.9604 18.7331 10.8396 18.618C10.7192 18.5013 10.587 18.3511 10.4429 18.1674C10.2989 17.9837 10.1703 17.7703 10.0571 17.5272C9.94397 17.284 9.85909 17.0517 9.8025 16.8302C9.74613 16.61 9.70895 16.3848 9.6914 16.1575L9.6636 15.8172L9.67903 15.8204L9.69447 15.8253L9.7099 15.8334L9.72533 15.8415L9.74076 15.8496L9.7562 15.8577L9.9954 15.9711C10.1549 16.0468 10.3529 16.1116 10.5896 16.1657C10.8262 16.2197 10.9677 16.2494 11.014 16.2548L11.0834 16.2629H11.2223L11.2192 16.258L11.2146 16.2548L11.2099 16.2516L11.2069 16.2467L11.2038 16.2418L11.1991 16.2386L11.1945 16.2353L11.1914 16.2305L11.176 16.2224L11.1606 16.2143L11.1575 16.2094L11.1528 16.2062L11.1482 16.2029L11.1451 16.1981L11.1297 16.19L11.1143 16.1819L11.1112 16.177C11.1081 16.1748 11.0639 16.1403 10.9785 16.0733C10.8941 16.0052 10.8056 15.9171 10.713 15.8091C10.6204 15.701 10.5278 15.5875 10.4352 15.4687C10.3425 15.3496 10.2598 15.2221 10.1883 15.0878C10.1163 14.9527 10.0402 14.7809 9.95991 14.5724C9.88069 14.3649 9.82051 14.1558 9.77935 13.9451C9.7382 13.7344 9.71505 13.5264 9.7099 13.3211C9.70476 13.1158 9.7099 12.9402 9.72533 12.7943C9.74076 12.6484 9.77163 12.4836 9.81793 12.2999C9.86423 12.1163 9.93111 11.9218 10.0186 11.7164L10.1497 11.4085L10.1574 11.3842L10.1652 11.3599L10.1698 11.3566L10.1729 11.3518L10.176 11.3469L10.1806 11.3436L10.1852 11.3469L10.1883 11.3518L10.1914 11.3566L10.196 11.3599L10.2007 11.3631L10.2037 11.368L10.2068 11.3728L10.2115 11.3761L10.2192 11.3923L10.2269 11.4085L10.2315 11.4117L10.2346 11.4166L10.4429 11.6597C10.5818 11.8218 10.7465 12.0028 10.9368 12.2027C11.1271 12.4026 11.2326 12.5063 11.2532 12.5139C11.2737 12.5225 11.2995 12.5474 11.3303 12.5885C11.3612 12.6284 11.4641 12.7241 11.639 12.8753C11.8139 13.0266 12.0428 13.2022 12.3257 13.4021C12.6087 13.602 12.9225 13.7992 13.2671 13.9937C13.6118 14.1882 13.9822 14.3638 14.3783 14.5205C14.7744 14.6772 15.0522 14.7798 15.2116 14.8285C15.3711 14.8771 15.6437 14.9392 16.0296 15.0149C16.4154 15.0905 16.706 15.1391 16.9015 15.1607C17.097 15.1823 17.2307 15.1948 17.3027 15.198L17.4108 15.2013L17.4077 15.1769L17.4031 15.1526L17.3722 14.95C17.3516 14.815 17.3413 14.6259 17.3413 14.3827C17.3413 14.1396 17.3593 13.9154 17.3953 13.7101C17.4314 13.5048 17.4854 13.2968 17.5574 13.0861C17.6294 12.8753 17.6999 12.7062 17.7688 12.5787C17.8388 12.4523 17.9303 12.308 18.0435 12.146C18.1567 11.9839 18.3033 11.8164 18.4833 11.6435C18.6634 11.4706 18.8691 11.3166 19.1006 11.1816C19.3321 11.0465 19.5456 10.9438 19.7411 10.8736C19.9366 10.8034 20.1012 10.7574 20.2349 10.7358C20.3687 10.7142 20.4356 10.7018 20.4356 10.6986Z" fill="white"/>
</svg>
